<svg version="1.0" xmlns="http://www.w3.org/2000/svg" width="1290.667" height="1290.667" viewBox="0 0 968 968"><path d="M443.9 9C308 14.7 192 50.1 152.3 97.9c-6.5 7.9-12.8 20.4-14.2 28.5-2.4 13.3-1 75.5 2.5 105.1 6.8 59.6 28.4 128.7 51.9 166 30.4 48.4 91.4 104.1 145.8 133.2 18.9 10.1 32 19.3 35.2 24.7 1.3 2.3 3.4 7.7 4.7 12.1 2.2 7.6 2.3 9.5 2.3 40.5 0 32.9-.6 43.7-5.1 88-3.3 33.7-6.2 53.1-9 62-6.5 20.5-22.7 44.9-51 76.7-6 6.7-12.5 14.7-14.4 17.9l-3.5 5.8v29.2l3.7 7.5c16.8 34.1 66.5 57.7 138 65.5 19 2.1 64.5 2.4 83.3.5 73-7.3 125.3-31.5 142.2-65.9 2.6-5.4 2.8-6.6 3.1-21.2l.3-15.5-3.7-6.1c-2-3.4-8.6-11.7-14.6-18.4-27.6-30.8-43.2-54.2-50.4-75.6-1.4-4.2-3.2-12.6-4-18.8-.8-6.1-1.6-12.2-1.9-13.6-.9-4.5-5.4-51.1-7.1-73-2.3-30.7-2.4-70 0-80.5 2.4-11.1 6.4-19.4 11.2-23.1 7.8-6.1 16.8-11.7 30.7-19.1 33.1-17.7 69.3-45.8 101.7-78.9 32.1-32.9 49.1-58.3 64-95.9 15.8-39.7 26.7-82.8 31.4-124.5 3.4-29.8 4.8-88.8 2.5-103-2.1-13.4-8.6-24.8-21-37-55.1-54.5-205.8-88.5-363-82zM543 28c114.1 8.2 203.4 34.6 241.4 71.4 12 11.6 17.9 23.5 17.9 36.1 0 8.6-2.1 15.4-7.5 23.7-17.8 27.6-68.8 52.7-138.3 68.2-122.3 27.2-284.4 22.2-390-12.1-64.4-20.8-100.5-49.4-100.6-79.4 0-9.4 2.2-16.4 8.2-25.3C203.3 66.9 309.2 33.8 442 27c20.2-1 81.2-.4 101 1z"/></svg>