<?xml version="1.0" standalone="no"?>
<!DOCTYPE svg PUBLIC "-//W3C//DTD SVG 20010904//EN"
 "http://www.w3.org/TR/2001/REC-SVG-20010904/DTD/svg10.dtd">
<svg version="1.0" xmlns="http://www.w3.org/2000/svg"
 width="968.000000pt" height="968.000000pt" viewBox="0 0 968.000000 968.000000"
 preserveAspectRatio="xMidYMid meet">
<metadata>
Created by potrace 1.11, written by Peter Selinger 2001-2013
</metadata>
<g transform="translate(0.000000,968.000000) scale(0.100000,-0.100000)"
fill="#000000" stroke="none">
<path d="M4439 9590 c-1359 -57 -2519 -411 -2916 -889 -65 -79 -128 -204 -142
-285 -24 -133 -10 -755 25 -1051 68 -596 284 -1287 519 -1660 304 -484 914
-1041 1458 -1332 189 -101 320 -193 352 -247 13 -23 34 -77 47 -121 22 -76 23
-95 23 -405 0 -329 -6 -437 -51 -880 -33 -337 -62 -531 -90 -620 -65 -205
-227 -449 -510 -767 -60 -67 -125 -147 -144 -179 l-35 -58 0 -146 0 -146 37
-75 c168 -341 665 -577 1380 -655 190 -21 645 -24 833 -5 730 73 1253 315
1422 659 26 54 28 66 31 212 l3 155 -37 61 c-20 34 -86 117 -146 184 -276 308
-432 542 -504 756 -14 42 -32 126 -40 188 -8 61 -16 122 -19 136 -9 45 -54
511 -71 730 -23 307 -24 700 0 805 24 111 64 194 112 231 78 61 168 117 307
191 331 177 693 458 1017 789 321 329 491 583 640 959 158 397 267 828 314
1245 34 298 48 888 25 1030 -21 134 -86 248 -210 370 -551 545 -2058 885
-3630 820z m991 -190 c1141 -82 2034 -346 2414 -714 120 -116 179 -235 179
-361 0 -86 -21 -154 -75 -237 -178 -276 -688 -527 -1383 -682 -1223 -272
-2844 -222 -3900 121 -644 208 -1005 494 -1006 794 0 94 22 164 82 253 292
437 1351 768 2679 836 202 10 812 4 1010 -10z"/>
</g>
</svg>
